{
	"asset":{
		"generator":"Khronos glTF Blender I/O v4.5.49",
		"version":"2.0"
	},
	"scene":0,
	"scenes":[
		{
			"name":"Scene",
			"nodes":[
				0
			]
		}
	],
	"nodes":[
		{
			"mesh":0,
			"name":"Standard:Mesh",
			"scale":[
				0.05000000074505806,
				0.05000000074505806,
				0.05000000074505806
			],
			"translation":[
				-0.0617230087518692,
				0.8451824188232422,
				-0.03822213411331177
			]
		}
	],
	"materials":[
		{
			"doubleSided":true,
			"name":"Maya_Lambert4",
			"pbrMetallicRoughness":{
				"baseColorFactor":[
					0.5,
					0.5,
					0.5,
					1
				],
				"metallicFactor":0,
				"roughnessFactor":0.5
			}
		}
	],
	"meshes":[
		{
			"name":"Mesh",
			"primitives":[
				{
					"attributes":{
						"POSITION":0,
						"NORMAL":1
					},
					"indices":2,
					"material":0
				}
			]
		}
	],
	"accessors":[
		{
			"bufferView":0,
			"componentType":5126,
			"count":517522,
			"max":[
				70.38764953613281,
				48.797325134277344,
				78.65873718261719
			],
			"min":[
				-67.73751831054688,
				-84.24639892578125,
				-83.05555725097656
			],
			"type":"VEC3"
		},
		{
			"bufferView":1,
			"componentType":5126,
			"count":517522,
			"type":"VEC3"
		},
		{
			"bufferView":2,
			"componentType":5125,
			"count":3072864,
			"type":"SCALAR"
		}
	],
	"bufferViews":[
		{
			"buffer":0,
			"byteLength":6210264,
			"byteOffset":0,
			"target":34962
		},
		{
			"buffer":0,
			"byteLength":6210264,
			"byteOffset":6210264,
			"target":34962
		},
		{
			"buffer":0,
			"byteLength":12291456,
			"byteOffset":12420528,
			"target":34963
		}
	],
	"buffers":[
		{
			"byteLength":24711984,
			"uri":"standard_scene.bin"
		}
	]
}
