{
	"asset":{
		"generator":"Khronos glTF Blender I/O v4.5.49",
		"version":"2.0"
	},
	"extensionsUsed":[
		"KHR_materials_specular"
	],
	"scene":0,
	"scenes":[
		{
			"name":"Scene",
			"nodes":[
				0
			]
		}
	],
	"nodes":[
		{
			"mesh":0,
			"name":"GliomaBrain3.001",
			"rotation":[
				0.7071068286895752,
				0,
				0,
				0.7071068286895752
			],
			"scale":[
				0.009999999776482582,
				0.009999999776482582,
				0.009999999776482582
			]
		}
	],
	"materials":[
		{
			"doubleSided":true,
			"extensions":{
				"KHR_materials_specular":{
					"specularColorFactor":[
						0.0,
						0.0,
						0.0
					]
				}
			},
			"name":"GliomaBrain3.001",
			"pbrMetallicRoughness":{
				"metallicFactor":0
			}
		}
	],
	"meshes":[
		{
			"name":"GliomaBrain3.001",
			"primitives":[
				{
					"attributes":{
						"POSITION":0,
						"NORMAL":1,
						"COLOR_0":2
					},
					"indices":3,
					"material":0
				}
			]
		}
	],
	"accessors":[
		{
			"bufferView":0,
			"componentType":5126,
			"count":323191,
			"max":[
				325.7110290527344,
				431.19256591796875,
				379.2783203125
			],
			"min":[
				-336.95654296875,
				-406.8861999511719,
				-326.76849365234375
			],
			"type":"VEC3"
		},
		{
			"bufferView":1,
			"componentType":5126,
			"count":323191,
			"type":"VEC3"
		},
		{
			"bufferView":2,
			"componentType":5126,
			"count":323191,
			"type":"VEC3"
		},
		{
			"bufferView":3,
			"componentType":5125,
			"count":1934916,
			"type":"SCALAR"
		}
	],
	"bufferViews":[
		{
			"buffer":0,
			"byteLength":3878292,
			"byteOffset":0,
			"target":34962
		},
		{
			"buffer":0,
			"byteLength":3878292,
			"byteOffset":3878292,
			"target":34962
		},
		{
			"buffer":0,
			"byteLength":3878292,
			"byteOffset":7756584,
			"target":34962
		},
		{
			"buffer":0,
			"byteLength":7739664,
			"byteOffset":11634876,
			"target":34963
		}
	],
	"buffers":[
		{
			"byteLength":19374540,
			"uri":"glioma2.bin"
		}
	]
}
