{
	"asset":{
		"generator":"Khronos glTF Blender I/O v4.5.49",
		"version":"2.0"
	},
	"extensionsUsed":[
		"KHR_materials_specular"
	],
	"scene":0,
	"scenes":[
		{
			"name":"Scene",
			"nodes":[
				0
			]
		}
	],
	"nodes":[
		{
			"mesh":0,
			"name":"GliomaBrain3",
			"rotation":[
				0,
				1,
				0,
				4.371138828673793e-08
			],
			"scale":[
				0.05000000074505806,
				0.05000000074505806,
				0.05000000074505806
			]
		}
	],
	"materials":[
		{
			"doubleSided":true,
			"extensions":{
				"KHR_materials_specular":{
					"specularFactor":0
				}
			},
			"name":"GliomaBrain3",
			"pbrMetallicRoughness":{
				"baseColorFactor":[
					0.800000011920929,
					0.800000011920929,
					0.800000011920929,
					1
				],
				"metallicFactor":0
			}
		}
	],
	"meshes":[
		{
			"name":"GliomaBrain3",
			"primitives":[
				{
					"attributes":{
						"POSITION":0,
						"NORMAL":1
					},
					"indices":2,
					"material":0
				}
			]
		}
	],
	"accessors":[
		{
			"bufferView":0,
			"componentType":5126,
			"count":323191,
			"max":[
				67.39131164550781,
				65.35369873046875,
				81.37724304199219
			],
			"min":[
				-65.14220428466797,
				-75.85566711425781,
				-86.23851013183594
			],
			"type":"VEC3"
		},
		{
			"bufferView":1,
			"componentType":5126,
			"count":323191,
			"type":"VEC3"
		},
		{
			"bufferView":2,
			"componentType":5125,
			"count":1934916,
			"type":"SCALAR"
		}
	],
	"bufferViews":[
		{
			"buffer":0,
			"byteLength":3878292,
			"byteOffset":0,
			"target":34962
		},
		{
			"buffer":0,
			"byteLength":3878292,
			"byteOffset":3878292,
			"target":34962
		},
		{
			"buffer":0,
			"byteLength":7739664,
			"byteOffset":7756584,
			"target":34963
		}
	],
	"buffers":[
		{
			"byteLength":15496248,
			"uri":"glioma2.bin"
		}
	]
}
