{
	"asset":{
		"generator":"Khronos glTF Blender I/O v4.5.49",
		"version":"2.0"
	},
	"extensionsUsed":[
		"KHR_materials_specular"
	],
	"scene":0,
	"scenes":[
		{
			"name":"Scene",
			"nodes":[
				0
			]
		}
	],
	"nodes":[
		{
			"mesh":0,
			"name":"Meta_Brain4",
			"rotation":[
				0.7071068286895752,
				0,
				0,
				0.7071068286895752
			],
			"scale":[
				0.009999999776482582,
				0.009999999776482582,
				0.009999999776482582
			]
		}
	],
	"materials":[
		{
			"doubleSided":true,
			"extensions":{
				"KHR_materials_specular":{
					"specularColorFactor":[
						0.0,
						0.0,
						0.0
					]
				}
			},
			"name":"Meta_Brain4",
			"pbrMetallicRoughness":{
				"metallicFactor":0
			}
		}
	],
	"meshes":[
		{
			"name":"Meta_Brain4",
			"primitives":[
				{
					"attributes":{
						"POSITION":0,
						"NORMAL":1,
						"COLOR_0":2
					},
					"indices":3,
					"material":0
				}
			]
		}
	],
	"accessors":[
		{
			"bufferView":0,
			"componentType":5126,
			"count":1265405,
			"max":[
				349.3174133300781,
				446.47802734375,
				354.8772277832031
			],
			"min":[
				-344.8391418457031,
				-382.5116882324219,
				-314.1586608886719
			],
			"type":"VEC3"
		},
		{
			"bufferView":1,
			"componentType":5126,
			"count":1265405,
			"type":"VEC3"
		},
		{
			"bufferView":2,
			"componentType":5126,
			"count":1265405,
			"type":"VEC3"
		},
		{
			"bufferView":3,
			"componentType":5125,
			"count":7528869,
			"type":"SCALAR"
		}
	],
	"bufferViews":[
		{
			"buffer":0,
			"byteLength":15184860,
			"byteOffset":0,
			"target":34962
		},
		{
			"buffer":0,
			"byteLength":15184860,
			"byteOffset":15184860,
			"target":34962
		},
		{
			"buffer":0,
			"byteLength":15184860,
			"byteOffset":30369720,
			"target":34962
		},
		{
			"buffer":0,
			"byteLength":30115476,
			"byteOffset":45554580,
			"target":34963
		}
	],
	"buffers":[
		{
			"byteLength":75670056,
			"uri":"meta2.bin"
		}
	]
}
