{
	"asset":{
		"generator":"Khronos glTF Blender I/O v4.5.49",
		"version":"2.0"
	},
	"extensionsUsed":[
		"KHR_materials_specular"
	],
	"scene":0,
	"scenes":[
		{
			"name":"Scene",
			"nodes":[
				0
			]
		}
	],
	"nodes":[
		{
			"mesh":0,
			"name":"Meta_Brain3",
			"scale":[
				0.05000000074505806,
				0.05000000074505806,
				0.05000000074505806
			]
		}
	],
	"materials":[
		{
			"doubleSided":true,
			"extensions":{
				"KHR_materials_specular":{
					"specularFactor":0
				}
			},
			"name":"Meta_Brain3",
			"pbrMetallicRoughness":{
				"baseColorFactor":[
					0.800000011920929,
					0.800000011920929,
					0.800000011920929,
					1
				],
				"metallicFactor":0
			}
		}
	],
	"meshes":[
		{
			"name":"Meta_Brain3",
			"primitives":[
				{
					"attributes":{
						"POSITION":0
					},
					"indices":1,
					"material":0
				}
			]
		}
	],
	"accessors":[
		{
			"bufferView":0,
			"componentType":5126,
			"count":2840185,
			"max":[
				69.90426635742188,
				62.79383087158203,
				89.303955078125
			],
			"min":[
				-68.97744750976562,
				-71.01140594482422,
				-76.605224609375
			],
			"type":"VEC3"
		},
		{
			"bufferView":1,
			"componentType":5125,
			"count":17070720,
			"type":"SCALAR"
		}
	],
	"bufferViews":[
		{
			"buffer":0,
			"byteLength":34082220,
			"byteOffset":0,
			"target":34962
		},
		{
			"buffer":0,
			"byteLength":68282880,
			"byteOffset":34082220,
			"target":34963
		}
	],
	"buffers":[
		{
			"byteLength":102365100,
			"uri":"meta2.bin"
		}
	]
}
