{
	"asset":{
		"generator":"Khronos glTF Blender I/O v4.5.49",
		"version":"2.0"
	},
	"extensionsUsed":[
		"KHR_materials_specular"
	],
	"scene":0,
	"scenes":[
		{
			"name":"Scene",
			"nodes":[
				0
			]
		}
	],
	"nodes":[
		{
			"mesh":0,
			"name":"Standard1",
			"scale":[
				0.05000000074505806,
				0.05000000074505806,
				0.05000000074505806
			]
		}
	],
	"materials":[
		{
			"doubleSided":true,
			"extensions":{
				"KHR_materials_specular":{
					"specularColorFactor":[
						0.0,
						0.0,
						0.0
					]
				}
			},
			"name":"Standard1.002",
			"pbrMetallicRoughness":{
				"metallicFactor":0
			}
		}
	],
	"meshes":[
		{
			"name":"Standard1",
			"primitives":[
				{
					"attributes":{
						"POSITION":0,
						"NORMAL":1,
						"COLOR_0":2
					},
					"indices":3,
					"material":0
				}
			]
		}
	],
	"accessors":[
		{
			"bufferView":0,
			"componentType":5126,
			"count":115567,
			"max":[
				69.16728210449219,
				61.400638580322266,
				86.65357971191406
			],
			"min":[
				-69.00898742675781,
				-70.1205825805664,
				-74.38602447509766
			],
			"type":"VEC3"
		},
		{
			"bufferView":1,
			"componentType":5126,
			"count":115567,
			"type":"VEC3"
		},
		{
			"bufferView":2,
			"componentType":5126,
			"count":115567,
			"type":"VEC3"
		},
		{
			"bufferView":3,
			"componentType":5125,
			"count":674976,
			"type":"SCALAR"
		}
	],
	"bufferViews":[
		{
			"buffer":0,
			"byteLength":1386804,
			"byteOffset":0,
			"target":34962
		},
		{
			"buffer":0,
			"byteLength":1386804,
			"byteOffset":1386804,
			"target":34962
		},
		{
			"buffer":0,
			"byteLength":1386804,
			"byteOffset":2773608,
			"target":34962
		},
		{
			"buffer":0,
			"byteLength":2699904,
			"byteOffset":4160412,
			"target":34963
		}
	],
	"buffers":[
		{
			"byteLength":6860316,
			"uri":"frontal.bin"
		}
	]
}
