{
	"asset":{
		"generator":"Khronos glTF Blender I/O v4.5.49",
		"version":"2.0"
	},
	"scene":0,
	"scenes":[
		{
			"name":"Scene",
			"nodes":[
				0
			]
		}
	],
	"nodes":[
		{
			"mesh":0,
			"name":"Standard1",
			"scale":[
				0.05000000074505806,
				0.05000000074505806,
				0.05000000074505806
			]
		}
	],
	"materials":[
		{
			"doubleSided":true,
			"name":"Standard1",
			"pbrMetallicRoughness":{
				"metallicFactor":0
			}
		}
	],
	"meshes":[
		{
			"name":"Standard1.001",
			"primitives":[
				{
					"attributes":{
						"POSITION":0,
						"NORMAL":1,
						"COLOR_0":2
					},
					"indices":3,
					"material":0
				}
			]
		}
	],
	"accessors":[
		{
			"bufferView":0,
			"componentType":5126,
			"count":115565,
			"max":[
				69.16728210449219,
				61.400665283203125,
				86.65360260009766
			],
			"min":[
				-69.00898742675781,
				-70.12055969238281,
				-74.38600158691406
			],
			"type":"VEC3"
		},
		{
			"bufferView":1,
			"componentType":5126,
			"count":115565,
			"type":"VEC3"
		},
		{
			"bufferView":2,
			"componentType":5126,
			"count":115565,
			"type":"VEC3"
		},
		{
			"bufferView":3,
			"componentType":5125,
			"count":674976,
			"type":"SCALAR"
		}
	],
	"bufferViews":[
		{
			"buffer":0,
			"byteLength":1386780,
			"byteOffset":0,
			"target":34962
		},
		{
			"buffer":0,
			"byteLength":1386780,
			"byteOffset":1386780,
			"target":34962
		},
		{
			"buffer":0,
			"byteLength":1386780,
			"byteOffset":2773560,
			"target":34962
		},
		{
			"buffer":0,
			"byteLength":2699904,
			"byteOffset":4160340,
			"target":34963
		}
	],
	"buffers":[
		{
			"byteLength":6860244,
			"uri":"stem.bin"
		}
	]
}
