{
	"asset":{
		"generator":"Khronos glTF Blender I/O v4.5.49",
		"version":"2.0"
	},
	"scene":0,
	"scenes":[
		{
			"name":"Scene",
			"nodes":[
				0
			]
		}
	],
	"nodes":[
		{
			"mesh":0,
			"name":"Standard:Mesh",
			"scale":[
				0.4000000059604645,
				0.4000000059604645,
				0.4000000059604645
			]
		}
	],
	"materials":[
		{
			"doubleSided":true,
			"name":"Maya_Lambert4",
			"pbrMetallicRoughness":{
				"baseColorFactor":[
					0.5,
					0.5,
					0.5,
					1
				],
				"metallicFactor":0,
				"roughnessFactor":0.5527864098548889
			}
		}
	],
	"meshes":[
		{
			"name":"Mesh",
			"primitives":[
				{
					"attributes":{
						"POSITION":0,
						"NORMAL":1
					},
					"indices":2,
					"material":0
				}
			]
		}
	],
	"accessors":[
		{
			"bufferView":0,
			"componentType":5126,
			"count":517520,
			"max":[
				68.57630157470703,
				63.82416534423828,
				87.87013244628906
			],
			"min":[
				-69.54886627197266,
				-69.21955871582031,
				-73.84416198730469
			],
			"type":"VEC3"
		},
		{
			"bufferView":1,
			"componentType":5126,
			"count":517520,
			"type":"VEC3"
		},
		{
			"bufferView":2,
			"componentType":5125,
			"count":3072864,
			"type":"SCALAR"
		}
	],
	"bufferViews":[
		{
			"buffer":0,
			"byteLength":6210240,
			"byteOffset":0,
			"target":34962
		},
		{
			"buffer":0,
			"byteLength":6210240,
			"byteOffset":6210240,
			"target":34962
		},
		{
			"buffer":0,
			"byteLength":12291456,
			"byteOffset":12420480,
			"target":34963
		}
	],
	"buffers":[
		{
			"byteLength":24711936,
			"uri":"standard_resize.bin"
		}
	]
}
