{
	"asset":{
		"generator":"Khronos glTF Blender I/O v4.5.49",
		"version":"2.0"
	},
	"extensionsUsed":[
		"KHR_materials_specular"
	],
	"scene":0,
	"scenes":[
		{
			"name":"Scene",
			"nodes":[
				0
			]
		}
	],
	"nodes":[
		{
			"mesh":0,
			"name":"GBM",
			"scale":[
				0.05000000074505806,
				0.05000000074505806,
				0.05000000074505806
			]
		}
	],
	"materials":[
		{
			"doubleSided":true,
			"extensions":{
				"KHR_materials_specular":{
					"specularFactor":0
				}
			},
			"name":"GBM",
			"pbrMetallicRoughness":{
				"baseColorFactor":[
					0.800000011920929,
					0.800000011920929,
					0.800000011920929,
					1
				],
				"metallicFactor":0
			}
		}
	],
	"meshes":[
		{
			"name":"GBM",
			"primitives":[
				{
					"attributes":{
						"POSITION":0,
						"NORMAL":1
					},
					"indices":2,
					"material":0
				}
			]
		}
	],
	"accessors":[
		{
			"bufferView":0,
			"componentType":5126,
			"count":954689,
			"max":[
				68.99423217773438,
				58.73112487792969,
				82.66477966308594
			],
			"min":[
				-65.14427185058594,
				-58.507537841796875,
				-77.6318359375
			],
			"type":"VEC3"
		},
		{
			"bufferView":1,
			"componentType":5126,
			"count":954689,
			"type":"VEC3"
		},
		{
			"bufferView":2,
			"componentType":5125,
			"count":5723259,
			"type":"SCALAR"
		}
	],
	"bufferViews":[
		{
			"buffer":0,
			"byteLength":11456268,
			"byteOffset":0,
			"target":34962
		},
		{
			"buffer":0,
			"byteLength":11456268,
			"byteOffset":11456268,
			"target":34962
		},
		{
			"buffer":0,
			"byteLength":22893036,
			"byteOffset":22912536,
			"target":34963
		}
	],
	"buffers":[
		{
			"byteLength":45805572,
			"uri":"glioblastoma.bin"
		}
	]
}
