{
	"asset":{
		"generator":"Khronos glTF Blender I/O v4.5.49",
		"version":"2.0"
	},
	"extensionsUsed":[
		"KHR_materials_specular"
	],
	"scene":0,
	"scenes":[
		{
			"name":"Scene",
			"nodes":[
				0
			]
		}
	],
	"nodes":[
		{
			"mesh":0,
			"name":"GBM",
			"rotation":[
				0.70710688829422,
				0,
				0,
				0.7071066498756409
			],
			"scale":[
				0.009999999776482582,
				0.010000000707805157,
				0.010000000707805157
			]
		}
	],
	"materials":[
		{
			"doubleSided":true,
			"extensions":{
				"KHR_materials_specular":{
					"specularColorFactor":[
						0.0,
						0.0,
						0.0
					]
				}
			},
			"name":"GBM",
			"pbrMetallicRoughness":{
				"metallicFactor":0
			}
		}
	],
	"meshes":[
		{
			"name":"GBM",
			"primitives":[
				{
					"attributes":{
						"POSITION":0,
						"NORMAL":1,
						"COLOR_0":2
					},
					"indices":3,
					"material":0
				}
			]
		}
	],
	"accessors":[
		{
			"bufferView":0,
			"componentType":5126,
			"count":954730,
			"max":[
				344.9711608886719,
				413.32391357421875,
				292.5377197265625
			],
			"min":[
				-325.72137451171875,
				-388.1592102050781,
				-293.6556396484375
			],
			"type":"VEC3"
		},
		{
			"bufferView":1,
			"componentType":5126,
			"count":954730,
			"type":"VEC3"
		},
		{
			"bufferView":2,
			"componentType":5126,
			"count":954730,
			"type":"VEC3"
		},
		{
			"bufferView":3,
			"componentType":5125,
			"count":5723259,
			"type":"SCALAR"
		}
	],
	"bufferViews":[
		{
			"buffer":0,
			"byteLength":11456760,
			"byteOffset":0,
			"target":34962
		},
		{
			"buffer":0,
			"byteLength":11456760,
			"byteOffset":11456760,
			"target":34962
		},
		{
			"buffer":0,
			"byteLength":11456760,
			"byteOffset":22913520,
			"target":34962
		},
		{
			"buffer":0,
			"byteLength":22893036,
			"byteOffset":34370280,
			"target":34963
		}
	],
	"buffers":[
		{
			"byteLength":57263316,
			"uri":"glioblastoma.bin"
		}
	]
}
